/* XPM */
static char *d120e9c44e394e02f126a67ca31cdbffZcZermujgrVRVgQd[] = {
/* columns rows colors chars-per-pixel */
"32 32 3 1 ",
"  c None",
". c black",
"X c #733E39",
/* pixels */
"                                ",
"                                ",
"                                ",
"                                ",
"                                ",
"                                ",
"                                ",
"          XXX.........          ",
"          XXXXX.......          ",
"          XXXXXXX.....          ",
"          XXXXXXXXX...          ",
"          XXXXXXXXX...          ",
"          XXXXXXXXX...          ",
"          XXXXXXXXX...          ",
"          XXXXXXXXX...          ",
"          XXXXXXXXX...          ",
"          XXXXX..XX...          ",
"          XXXXXXX.X...          ",
"          XXXXXXX.X...          ",
"          XXXXXXX.X...          ",
"          XXXXXXXXX...          ",
"          XXXXXXXXX...          ",
"          XXXXXXXXX...          ",
"             XXXXXX             ",
"               XXXX             ",
"                 XX             ",
"                                ",
"                                ",
"                                ",
"                                ",
"                                ",
"                                "
};
