/* XPM */
static char *_b2ea234a058403eae7dc8a68109b813RHc9SVEZNuwkGJrt[] = {
/* columns rows colors chars-per-pixel */
"32 32 3 1 ",
"  c None",
". c black",
"X c #733E39",
/* pixels */
"                                ",
"                                ",
"                                ",
"                                ",
"                                ",
"                                ",
"                                ",
"          XXXXXXXXXXXX          ",
"          XXXXXXXXXXXX          ",
"          XXXXXXXXXXXX          ",
"          XXXXXXXXXXXX          ",
"          XXXXXXXXXXXX          ",
"          XXXXXXXXXXXX          ",
"          XXXXXXXXXXXX          ",
"          XXXXXXXXXXXX          ",
"          XXXXXXX....X          ",
"          XXXXXXXXX..X          ",
"          XXXXXXXXXX.X          ",
"          XXXXXXXXXXXX          ",
"          XXXXXXXXXXXX          ",
"          XXXXXXXXXXXX          ",
"          XXXXXXXXXXXX          ",
"          XXXXXXXXXXXX          ",
"                                ",
"                                ",
"                                ",
"                                ",
"                                ",
"                                ",
"                                ",
"                                ",
"                                "
};
