/* XPM */
static char *_12e4fd08efb4bd987d6be8b53b67de5oalZOLZ6002vGc17[] = {
/* columns rows colors chars-per-pixel */
"32 32 11 1 ",
"  c #F77622",
". c #FF0044",
"X c #F6757A",
"o c #3E8948",
"O c #63C74D",
"+ c #FEAE34",
"@ c #C28569",
"# c #FEE761",
"$ c #5A6988",
"% c #B55088",
"& c #2CE8F5",
/* pixels */
"OOOOOOOOO$OOOOOOOOOOOOOOOOOOOOOO",
"OOOOOOOO$@ooOOOOOOOOOOOOOOOOOOOO",
"OOOOOOOOo@oOOOOOOOOOOOOOOOOOOOOO",
"OOOOOOOOooOOOOOOOOOOOOO&OOOOOOOO",
"OOOOOOOOOOOOOOO#OOOOOO&@OooOOOOO",
"OOOO.OOOOOOOOO###OOOOOo@OoOOOOOO",
"OOO...OoOOOOOOO@OOOOOOo@ooOOOOOO",
"OOOO@OoOOOOOOoO@OOoOOOOooOOOOOOO",
"OOoO@OoOOOOOOOo@@oOOOOOOOOOOOOOO",
"OOOoO@oOOOOOOOooooOOOOOOOOOOOOOO",
"OOOOoooOOOOOOOOooOOOOOOOOOOOOOOO",
"OOOOOoOOOOOOOOOOOOOOOOOOOOOOOOOO",
"OOOOOOOOOOOOOOOOOOOOOOOOOOOOOOOO",
"OOOOOOOOOOOOOOOOOOOOOOOOOoOOOoOO",
"OOOOOOOOOOOOOOOOO+OOOOOOoooOoOOO",
"OOOOO  OOOOOOOOO+++OOOOOO@@OoOOO",
"OOOO   @oOOOOOOOO@OoOOOOOO@OoOOO",
"OOOOOO@OoOOOOOOoO@ooOOOOOoooOOOO",
"OOOOoO@oOOOOOOOoO@oOOOOOOOooOOOO",
"OOOOOo@oOOOOOOOOo@oOOOOOOOOOOOOO",
"OOOOOOooOOOOOOOOooOOOOOOOOOOOOOO",
"OOOOOOooOOOOOOOOooOOOOOOOOOOOOOO",
"OOOOOOOOOO%%OOOOOOOOOOOOOOOOOOOO",
"OOOOOOOOO%%%OOOOOOOOOXOOOOOOOOOO",
"OOOOOOOOOO@@OoOOOOOOXXXOOOOOOOOO",
"OOOOOOOOOoO@oOOOOOOOOXOOoOOOOOOO",
"OOOOOOOOOoo@oOOOOOOoO@OoOOOOOOOO",
"OOOOOOOOOOooOOOOOOOOo@OoOOOOOOOO",
"OOOOOOOOOOOoOOOOOOOOOooOOOOOOOOO",
"OOOOOOOOOOOOOOOOOOOOOooOOOOOOOOO",
"OOOOOOOOOOOOOOOOOOOOOOOOOOOOOOOO",
"OOOOOOOOOOOOOOOOOOOOOOOOOOOOOOOO"
};
