/* XPM */
static char *faf78e1b11d94760918f3b746919189fmN42ryUK3EhH0qv7[] = {
/* columns rows colors chars-per-pixel */
"32 32 15 1 ",
"  c None",
". c black",
"X c #181425",
"o c #3E2731",
"O c #262B44",
"+ c #68386C",
"@ c #3A4466",
"# c #FEAE34",
"$ c #D19D7A",
"% c #FEE761",
"& c #124E89",
"* c #0099DB",
"= c #8B9BB4",
"- c #E8B796",
"; c white",
/* pixels */
"                                ",
"                                ",
"                                ",
"              .......           ",
"             .........          ",
"            ..........          ",
"           ..............       ",
"           ...............      ",
"           .####$-----.         ",
"           .###$$-----.         ",
"           ....;....;....       ",
"           .$$$.;..-.;..        ",
"           .$.$$..---..         ",
"           .$$.$$--..-.         ",
"            ..#$$.----.         ",
"             .##$-...-.         ",
"            XO.#$--%-%.         ",
"           .OOO.#%%%%.          ",
"          .OOOO@......          ",
"         .--OOO@@@@.$$.         ",
"         .-$.OO@@@@.$$.         ",
"          ...OO@@@@...          ",
"            .oo+==+.            ",
"            .&&****.            ",
"            .&&**.*.            ",
"            .&&*.&*.            ",
"            .&&..&*.            ",
"            .&. .&.             ",
"            ..  ..              ",
"                                ",
"                                ",
"                                "
};
