/* XPM */
static char *e6d4213b19704af9e244989e2399e5d3tnw4WarBjfCYcqIi[] = {
/* columns rows colors chars-per-pixel */
"32 32 3 1 ",
"  c #63C74D",
". c #FEAE34",
"X c #FEE761",
/* pixels */
"                                ",
"                                ",
"                                ",
"                                ",
"                                ",
"                                ",
"                                ",
"                                ",
"              XXXX              ",
"            XXXXXXXX            ",
"           XXXXXXXXXX           ",
"          XXXXXXXXXXXX          ",
"         XXXXX....XXXXX         ",
"        XXXXXX.XXXXXXXXX        ",
"        XXXXXX.XXXXXXXXX        ",
"        XXXXXX...XXXXXXX        ",
"        XXXXXXX...XXXXXX        ",
"        XXXXXXXXX.XXXXXX        ",
"        XXXXXXXXX.XXXXXX        ",
"         XXXXX....XXXXX         ",
"          XXXXXXXXXXXX          ",
"           XXXXXXXXXX           ",
"            XXXXXXXX            ",
"              XXXX              ",
"                                ",
"                                ",
"                                ",
"                                ",
"                                ",
"                                ",
"                                ",
"                                "
};
