/* XPM */
static char *c2cb2a7a0e6b4b31f76cc683672ce065uIWUe4qqy9GMNXqm[] = {
/* columns rows colors chars-per-pixel */
"32 32 5 1 ",
"  c black",
". c #733E39",
"X c #FF0044",
"o c #3E8948",
"O c #63C74D",
/* pixels */
"OOOOOOOOOOOOOOOOOOOOOOOOOOOOOOOO",
"OOOOOOOOOOOOOOOOOOOOOOOOOOOOOOOO",
"OOOOOOOOOOOOOOOOOOOOOOOOOOOOOOOO",
"OOOOOOOOOOOOOOOOOOOOOOOOOOOOOOOO",
"OOOOOXXXXOOOOOOOOOOOOXXXXXOOOOOO",
"OOOOOXXXXOOOOOOOOOOOXXXXXXOOOOOO",
"OoOOXXXXXXOOOOOOOOOOXXXXXXXOOooO",
"OooOXXXXXXOOoOOOOoOoXXXXXXXOOoOO",
"OooOXXXXXooooOOOOOooXXXXXXXOooOO",
"OooOoXX..ooooooOOOooXXXXXXooooOO",
"Ooooo....ooooooOOOooooXXX.ooooOO",
"Ooooo....oooooOOOOooo.....ooooOO",
"Ooooo...oooooOOOOOooo.....ooooOO",
"Ooooo...oooooOOOOOooo.....oooooO",
"Oooo....oooooOOOOOooo.....ooooOO",
"Ooooo...oooooOOOOOoooo....ooooOO",
"Ooooo..oooooOOOOOOoooo...ooooOOO",
"Ooooo..oooooOOOOOOoooo...ooooOOO",
"OOooo..ooooOOOOOOOOoooo.oooooOOO",
"OOooooooooooOOOOOOOoooooooooOOOO",
"OOoooooooooOOOOOOOOooooooooOOOOO",
"OOOooooooooOOOOOOOOooooooooOOOOO",
"OOOoooooooOOOOOOOOOOooooooOOOOOO",
"OOOoooooooOOOOOOOOOOooooooOOOOOO",
"OooooooooOOOOOOOOOOOooooooOOOOOO",
"                                ",
"OOOOOoo  OOOOOO  OOOOoo  OOOOOOO",
"OOOOOOo  OOOOOO  OOOOoo  OOOOOOO",
"OOOOOOo  OOOOOO  OOOOOo  OOOOOOO",
"OOOOOOO  OOOOOO  OOOOOO  OOOOOOO",
"OOOOOOO  OOOOOO  OOOOOO  OOOOOOO",
"OOOOOOO  OOOOOO  OOOOOO  OOOOOOO"
};
